<svg width="16" height="16" viewBox="0 0 16 16" fill="none" xmlns="http://www.w3.org/2000/svg">
<g clip-path="url(#clip0_445_2200)">
<path fill-rule="evenodd" clip-rule="evenodd" d="M7.28571 0H3.98769C3.09282 0.0230009 2.24421 0.56436 1.84615 1.36615L0 4.92307V4.94221H7.28571V0ZM0 14.7693V6.37078H16V14.7693C16 15.0957 15.8703 15.4087 15.6395 15.6395C15.4087 15.8703 15.0957 16 14.7693 16H1.23077C0.904349 16 0.591298 15.8703 0.360483 15.6395C0.12967 15.4087 0 15.0957 0 14.7693ZM16 4.92307V4.94221H8.71429V0H12.0123C12.9282 0.000486011 13.8078 0.545938 14.2154 1.36615L16 4.92307ZM10.7857 9.8699C11.0222 9.55417 10.958 9.10649 10.6423 8.86998C10.3265 8.63347 9.87886 8.69769 9.64234 9.01342L7.41491 11.987L6.214 11.0873C5.89826 10.8508 5.45059 10.915 5.21408 11.2308C4.97757 11.5465 5.04179 11.9942 5.35752 12.2307L7.13011 13.5585C7.28173 13.6721 7.47225 13.7208 7.65978 13.6939C7.8473 13.667 8.01646 13.5667 8.13003 13.4151L10.7857 9.8699Z" fill="black"/>
</g>
<defs>
<clipPath id="clip0_445_2200">
<rect width="16" height="16" fill="white"/>
</clipPath>
</defs>
</svg>
