<svg width="32" height="32" viewBox="0 0 16 16" fill="none" xmlns="http://www.w3.org/2000/svg">
<path fill-rule="evenodd" clip-rule="evenodd" d="M9.88447 1.14574C9.88447 0.79906 10.0933 0.486514 10.4136 0.353845C10.7339 0.221176 11.1026 0.29451 11.3477 0.53965L14.0894 3.28139C14.4242 3.61612 14.4242 4.15884 14.0894 4.49357L11.3477 7.23531C11.1026 7.48045 10.7339 7.55379 10.4136 7.42112C10.0933 7.28845 9.88447 6.9759 9.88447 6.62922V5.03022H7.99988C5.60261 5.03022 3.65925 6.9736 3.65925 9.37085C3.65925 11.7681 5.60261 13.7115 7.99988 13.7115C10.3971 13.7115 12.3405 11.7681 12.3405 9.37085C12.3405 8.73967 12.8522 8.228 13.4834 8.228C14.1146 8.228 14.6262 8.73967 14.6262 9.37085C14.6262 13.0305 11.6595 15.9972 7.99988 15.9972C4.34024 15.9972 1.37354 13.0305 1.37354 9.37085C1.37354 5.71123 4.34024 2.74451 7.99988 2.74451H9.88447V1.14574Z" fill="black"/>
</svg>
