<svg width="16" height="16" viewBox="0 0 16 16" fill="none" xmlns="http://www.w3.org/2000/svg">
<path fill-rule="evenodd" clip-rule="evenodd" d="M5.25714 1.94293C5.36506 1.79904 5.53442 1.71436 5.71429 1.71436H10.2857C10.4656 1.71436 10.6349 1.79904 10.7429 1.94293L12.2857 4.00007H14.2857C14.7403 4.00007 15.1765 4.18069 15.4979 4.50217C15.8194 4.82366 16 5.25969 16 5.71436V12.5715C16 13.0261 15.8194 13.4622 15.4979 13.7837C15.1765 14.1052 14.7403 14.2858 14.2857 14.2858H1.71429C1.25962 14.2858 0.823593 14.1052 0.502103 13.7837C0.180611 13.4622 0 13.0261 0 12.5715V5.71436C0 5.2597 0.180611 4.82366 0.502103 4.50217C0.823593 4.18069 1.25962 4.00007 1.71429 4.00007H3.71429L5.25714 1.94293ZM10.8129 8.81301C10.8129 10.3666 9.55353 11.6259 7.99999 11.6259C6.44645 11.6259 5.18705 10.3666 5.18705 8.81301C5.18705 7.25946 6.44645 6.00007 7.99999 6.00007C9.55353 6.00007 10.8129 7.25946 10.8129 8.81301Z" fill="black"/>
</svg>
