<svg width="24" height="24" viewBox="0 0 16 16" fill="none" xmlns="http://www.w3.org/2000/svg">
<g clip-path="url(#clip0_292_881)">
<path fill-rule="evenodd" clip-rule="evenodd" d="M1.64497 0.502103C1.96646 0.180611 2.4025 0 2.85715 0H14.2857C14.7403 0 15.1765 0.180611 15.4979 0.502103C15.8194 0.823593 16 1.25962 16 1.71429V13.1429C16 13.5975 15.8194 14.0336 15.4979 14.3551C15.1765 14.6766 14.7403 14.8571 14.2857 14.8571H5.21321L0.710032 15.983C0.507698 16.0335 0.293877 15.9698 0.15217 15.8168C0.010464 15.6638 -0.036617 15.4457 0.0293356 15.2479L1.14287 11.9073V1.71429C1.14287 1.25963 1.32349 0.823593 1.64497 0.502103ZM8.15093 4.14758C8.36118 4.06049 8.59254 4.0377 8.81575 4.0821C9.03896 4.1265 9.24399 4.23609 9.4049 4.39701C9.56583 4.55793 9.67542 4.76296 9.71982 4.98617C9.76422 5.20937 9.74143 5.44073 9.65434 5.65099C9.56725 5.86125 9.41976 6.04096 9.23054 6.16739C9.04132 6.29383 8.81885 6.36131 8.59127 6.36131C8.19678 6.36131 7.87698 6.68111 7.87698 7.0756V8.31889C7.87698 8.71338 8.19678 9.03318 8.59127 9.03318C8.98576 9.03318 9.30555 8.71338 9.30555 8.31889V7.68901C9.55951 7.61582 9.80208 7.50363 10.0242 7.3552C10.4484 7.07179 10.7789 6.66897 10.9742 6.19768C11.1694 5.72639 11.2205 5.20779 11.1209 4.70746C11.0214 4.20714 10.7758 3.74757 10.4151 3.38686C10.0543 3.02615 9.59477 2.7805 9.09445 2.68098C8.59413 2.58145 8.07553 2.63254 7.60424 2.82775C7.13294 3.02297 6.73013 3.35355 6.44671 3.7777C6.1633 4.20186 6.01203 4.70053 6.01203 5.21065C6.01203 5.60514 6.33183 5.92494 6.72632 5.92494C7.12081 5.92494 7.44061 5.60514 7.44061 5.21065C7.44061 4.98307 7.50809 4.76061 7.63453 4.57138C7.76096 4.38215 7.94067 4.23467 8.15093 4.14758ZM8.59131 12.1414C8.02623 12.1401 7.56854 11.6817 7.56854 11.1163C7.56854 10.5502 8.0275 10.0912 8.59365 10.0912L8.59595 10.0912C9.16104 10.0925 9.61873 10.5509 9.61873 11.1163C9.61873 11.6825 9.15978 12.1414 8.59362 12.1414H8.59131Z" fill="black"/>
</g>
<defs>
<clipPath id="clip0_292_881">
<rect width="24" height="24" fill="white"/>
</clipPath>
</defs>
</svg>
