<svg width="16" height="16" viewBox="0 0 16 16" fill="none" xmlns="http://www.w3.org/2000/svg">
<g clip-path="url(#clip0_195_302)">
<path fill-rule="evenodd" clip-rule="evenodd" d="M8 16C12.4183 16 16 12.4183 16 8C16 3.58173 12.4183 0 8 0C3.58173 0 0 3.58173 0 8C0 12.4183 3.58173 16 8 16ZM8.71429 5.14286C8.71429 4.74837 8.39449 4.42857 8 4.42857C7.60551 4.42857 7.28571 4.74837 7.28571 5.14286V8C7.28571 8.1671 7.3443 8.3289 7.45127 8.45728L10.3084 11.8858C10.561 12.1889 11.0114 12.2298 11.3144 11.9773C11.6175 11.7248 11.6584 11.2744 11.4059 10.9713L8.71429 7.74139V5.14286Z" fill="black"/>
</g>
<defs>
<clipPath id="clip0_195_302">
<rect width="16" height="16" fill="white"/>
</clipPath>
</defs>
</svg>
