<svg width="32" height="32" viewBox="0 0 16 16" fill="none" xmlns="http://www.w3.org/2000/svg">
<g clip-path="url(#clip0_292_690)">
<path fill-rule="evenodd" clip-rule="evenodd" d="M0.140137 6.38045V8.32648C0.140137 9.43335 1.91205 10.363 4.28578 10.5695V7.67355C4.28578 7.62734 4.28705 7.58162 4.28953 7.53642C2.97022 7.44226 1.77187 7.16233 0.831266 6.74267C0.587345 6.63385 0.355321 6.5132 0.140137 6.38045ZM10.4259 2.28571V3.96633C9.01355 4.01278 7.68702 4.28672 6.64047 4.75186C6.06601 5.00717 5.5127 5.34818 5.08366 5.79901C4.9858 5.90184 4.89168 6.01362 4.80454 6.13398C3.44824 6.08294 2.26386 5.81753 1.41333 5.43806C0.937883 5.22594 0.597937 4.9921 0.386448 4.76895C0.23955 4.61394 0.168947 4.48097 0.140137 4.37133V2.28571C0.140137 1.02335 2.44267 0 5.28299 0C8.12331 0 10.4259 1.02335 10.4259 2.28571ZM5.28285 3.35006C7.26615 3.35006 8.87393 2.88769 8.87393 2.31733C8.87393 1.74697 7.26615 1.28459 5.28285 1.28459C3.29954 1.28459 1.69175 1.74697 1.69175 2.31733C1.69175 2.88769 3.29954 3.35006 5.28285 3.35006ZM5.71435 13.7143V11.7682C5.92954 11.901 6.16157 12.0217 6.40549 12.1305C7.57744 12.6534 9.14948 12.9593 10.8571 12.9593C12.5648 12.9593 14.1368 12.6534 15.3088 12.1305C15.5528 12.0216 15.7849 11.9009 16.0001 11.7681V13.7143C16.0001 14.9714 13.7144 16 10.8572 16C8.00007 16 5.71435 14.9714 5.71435 13.7143ZM5.96066 10.1568C5.81377 10.0018 5.74317 9.8688 5.71435 9.75915V7.67355C5.71435 6.41119 8.01689 5.38784 10.8572 5.38784C13.6976 5.38784 16.0001 6.41119 16.0001 7.67355V9.75837C15.9714 9.86817 15.9008 10.0014 15.7536 10.1568C15.542 10.3799 15.2021 10.6138 14.7267 10.8259C13.7776 11.2494 12.4126 11.5307 10.8571 11.5307C9.30153 11.5307 7.93667 11.2494 6.98754 10.8259C6.5121 10.6138 6.17215 10.3799 5.96066 10.1568ZM14.4482 7.70517C14.4482 8.27552 12.8404 8.73789 10.8571 8.73789C8.87376 8.73789 7.26598 8.27552 7.26598 7.70517C7.26598 7.1348 8.87376 6.67243 10.8571 6.67243C12.8404 6.67243 14.4482 7.1348 14.4482 7.70517Z" fill="black"/>
</g>
<defs>
<clipPath id="clip0_292_690">
<rect width="32" height="32" fill="white"/>
</clipPath>
</defs>
</svg>
