<svg width="16" height="16" viewBox="0 0 16 16" fill="none" xmlns="http://www.w3.org/2000/svg">
<g clip-path="url(#clip0_292_786)">
<path fill-rule="evenodd" clip-rule="evenodd" d="M2.62288 1.18621C2.22615 0.789491 1.58294 0.789491 1.18621 1.18621C0.789491 1.58294 0.789491 2.22615 1.18621 2.62288L6.56314 7.99979L1.18621 13.3767C0.789491 13.7734 0.789491 14.4167 1.18621 14.8134C1.58294 15.2101 2.22615 15.2101 2.62288 14.8134L7.99979 9.43646L13.3767 14.8134C13.7734 15.2101 14.4167 15.2101 14.8134 14.8134C15.2101 14.4167 15.2101 13.7734 14.8134 13.3767L9.43646 7.99979L14.8134 2.62288C15.2101 2.22615 15.2101 1.58294 14.8134 1.18621C14.4167 0.789491 13.7734 0.789491 13.3767 1.18621L7.99979 6.56314L2.62288 1.18621Z" fill="black"/>
</g>
<defs>
<clipPath id="clip0_292_786">
<rect width="16" height="16" fill="white"/>
</clipPath>
</defs>
</svg>
