<svg width="16" height="16" viewBox="0 0 16 16" fill="none" xmlns="http://www.w3.org/2000/svg">
<g clip-path="url(#clip0_195_300)">
<path fill-rule="evenodd" clip-rule="evenodd" d="M16 8C16 12.4183 12.4183 16 8 16C3.58173 16 0 12.4183 0 8C0 3.58173 3.58173 0 8 0C12.4183 0 16 3.58173 16 8ZM6.57143 6C6.57143 5.21102 7.21102 4.57143 8 4.57143C8.78898 4.57143 9.42857 5.21102 9.42857 6C9.42857 6.78898 8.78898 7.42857 8 7.42857C7.52662 7.42857 7.14286 7.81233 7.14286 8.28572V9.02455C7.14286 9.49794 7.52662 9.88169 8 9.88169C8.47338 9.88169 8.85714 9.49794 8.85714 9.02455C10.1763 8.65145 11.1429 7.43861 11.1429 6C11.1429 4.26425 9.73575 2.85714 8 2.85714C6.26425 2.85714 4.85714 4.26425 4.85714 6C4.85714 6.47338 5.2409 6.85714 5.71429 6.85714C6.18767 6.85714 6.57143 6.47338 6.57143 6ZM9.14286 12C9.14286 12.6312 8.63119 13.1429 8 13.1429C7.36881 13.1429 6.85714 12.6312 6.85714 12C6.85714 11.3688 7.36881 10.8571 8 10.8571C8.63119 10.8571 9.14286 11.3688 9.14286 12Z" fill="black"/>
</g>
<defs>
<clipPath id="clip0_195_300">
<rect width="16" height="16" fill="white"/>
</clipPath>
</defs>
</svg>
