<svg width="16" height="16" viewBox="0 0 16 16" fill="none" xmlns="http://www.w3.org/2000/svg">
<g clip-path="url(#clip0_195_298)">
<path fill-rule="evenodd" clip-rule="evenodd" d="M8 16C12.4183 16 16 12.4183 16 8C16 3.58173 12.4183 0 8 0C3.58173 0 0 3.58173 0 8C0 12.4183 3.58173 16 8 16ZM4.57143 9.14286C5.20261 9.14286 5.71429 8.63118 5.71429 8C5.71429 7.36882 5.20261 6.85714 4.57143 6.85714C3.94025 6.85714 3.42857 7.36882 3.42857 8C3.42857 8.63118 3.94025 9.14286 4.57143 9.14286ZM9.14286 8C9.14286 8.63118 8.63118 9.14286 8 9.14286C7.36882 9.14286 6.85714 8.63118 6.85714 8C6.85714 7.36882 7.36882 6.85714 8 6.85714C8.63118 6.85714 9.14286 7.36882 9.14286 8ZM11.4286 9.14286C12.0598 9.14286 12.5714 8.63118 12.5714 8C12.5714 7.36882 12.0598 6.85714 11.4286 6.85714C10.7974 6.85714 10.2857 7.36882 10.2857 8C10.2857 8.63118 10.7974 9.14286 11.4286 9.14286Z" fill="black"/>
</g>
<defs>
<clipPath id="clip0_195_298">
<rect width="16" height="16" fill="white"/>
</clipPath>
</defs>
</svg>
