<svg width="16" height="16" viewBox="0 0 16 16" fill="none" xmlns="http://www.w3.org/2000/svg">
<g clip-path="url(#clip0_195_306)">
<path fill-rule="evenodd" clip-rule="evenodd" d="M1.84563 4.04633C2.40145 3.74726 3.09449 3.95538 3.39357 4.51121C3.61737 4.92712 3.90921 5.31103 4.25707 5.64941C4.28711 5.67509 4.31608 5.70255 4.34382 5.73178C5.26512 6.5856 6.55299 7.12876 8.00061 7.12876C9.44357 7.12876 10.7278 6.5891 11.6485 5.74005C11.6813 5.70482 11.7158 5.6721 11.7518 5.64192C12.0964 5.30537 12.3855 4.92406 12.6077 4.51121C12.9068 3.95538 13.5998 3.74726 14.1556 4.04633C14.7115 4.34542 14.9196 5.03846 14.6205 5.59429C14.4705 5.87288 14.3016 6.1402 14.1153 6.39482L15.5912 7.63177C16.075 8.0372 16.1385 8.75802 15.7331 9.24178C15.3277 9.72554 14.6069 9.78904 14.1231 9.38362L12.4777 8.00476C12.0709 8.29408 11.6317 8.54437 11.1668 8.75038L11.8717 10.5256C12.1046 11.1122 11.8179 11.7766 11.2312 12.0095C10.6446 12.2424 9.9802 11.9557 9.74727 11.3691L8.94872 9.35801C8.63784 9.39529 8.32136 9.41447 8.00061 9.41447C7.67819 9.41447 7.36007 9.39509 7.04762 9.35743L6.24885 11.3691C6.01591 11.9557 5.35152 12.2424 4.76489 12.0095C4.17827 11.7766 3.89155 11.1122 4.12447 10.5256L4.83012 8.74846C4.36656 8.5427 3.92864 8.29292 3.52279 8.00431L1.87696 9.38362C1.3932 9.78904 0.672384 9.72554 0.26696 9.24178C-0.138463 8.75802 -0.0749596 8.0372 0.4088 7.63177L1.88548 6.39422C1.69935 6.13976 1.53055 5.87266 1.38076 5.59429C1.08167 5.03846 1.28981 4.34542 1.84563 4.04633Z" fill="black"/>
</g>
<defs>
<clipPath id="clip0_195_306">
<rect width="16" height="16" fill="white"/>
</clipPath>
</defs>
</svg>
