<svg width="16" height="16" viewBox="0 0 16 16" fill="none" xmlns="http://www.w3.org/2000/svg">
<g clip-path="url(#clip0_195_291)">
<path fill-rule="evenodd" clip-rule="evenodd" d="M16 14.2857C16 15.2325 15.2325 16 14.2857 16H1.71429C0.767512 16 0 15.2325 0 14.2857V1.71429C0 0.767512 0.767512 0 1.71429 0H14.2857C15.2325 0 16 0.767512 16 1.71429V14.2857ZM4.28571 2.28571C3.18114 2.28571 2.28571 3.18114 2.28571 4.28571C2.28571 5.39029 3.18114 6.28571 4.28571 6.28571C5.39029 6.28571 6.28571 5.39029 6.28571 4.28571C6.28571 3.18114 5.39029 2.28571 4.28571 2.28571ZM9.60113 7.54173L2.85714 14.2857H14.2857V9.71429L11.0735 7.41986C10.6189 7.09514 9.99617 7.14669 9.60113 7.54173Z" fill="black"/>
</g>
<defs>
<clipPath id="clip0_195_291">
<rect width="16" height="16" fill="white"/>
</clipPath>
</defs>
</svg>
