<svg width="16" height="16" viewBox="0 0 16 16" fill="none" xmlns="http://www.w3.org/2000/svg">
<path fill-rule="evenodd" clip-rule="evenodd" d="M7.42857 1.14307C6.48179 1.14307 5.71429 1.91058 5.71429 2.85735V7.42878C5.71429 8.37556 6.48179 9.14307 7.42857 9.14307H14.2857C15.2325 9.14307 16 8.37556 16 7.42878V2.85735C16 1.91058 15.2325 1.14307 14.2857 1.14307H7.42857ZM3.71446 3.42975C4.18785 3.42975 4.5716 3.81351 4.5716 4.2869V10.0012C4.5716 10.159 4.69952 10.2869 4.85731 10.2869H12.8574C13.3307 10.2869 13.7145 10.6707 13.7145 11.144C13.7145 11.6175 13.3307 12.0012 12.8574 12.0012H4.85731C3.75274 12.0012 2.85731 11.1058 2.85731 10.0012V4.2869C2.85731 3.81351 3.24107 3.42975 3.71446 3.42975ZM0.857143 6.2862C1.33053 6.2862 1.71429 6.66996 1.71429 7.14334V12.8576C1.71429 13.0154 1.84221 13.1433 2 13.1433H10C10.4734 13.1433 10.8571 13.5271 10.8571 14.0004C10.8571 14.4739 10.4734 14.8576 10 14.8576H2C0.895431 14.8576 0 13.9622 0 12.8576V7.14334C0 6.66996 0.383755 6.2862 0.857143 6.2862Z" fill="black"/>
</svg>
