<svg width="16" height="16" viewBox="0 0 16 16" fill="none" xmlns="http://www.w3.org/2000/svg">
<g clip-path="url(#clip0_195_295)">
<path fill-rule="evenodd" clip-rule="evenodd" d="M5.04102 14.8128C5.42498 14.9958 5.84495 15.0908 6.2703 15.0908H12.3801C13.7877 15.0908 14.9855 14.0656 15.2029 12.675L15.9182 8.09979C16.1349 6.71351 15.063 5.46103 13.6599 5.46103H9.9071V2.76661C9.9071 1.74078 9.0755 0.90918 8.04967 0.90918C7.37733 0.90918 6.75746 1.27251 6.429 1.85917L4.05489 6.09925C3.91161 6.35513 3.83638 6.64349 3.83638 6.93675V13.1567C3.83638 13.8176 4.2164 14.4198 4.8131 14.7041L5.04102 14.8128ZM1.19289 6.30866C0.890892 6.30866 0.601261 6.42863 0.387715 6.64217C0.174169 6.85573 0.0541992 7.14535 0.0541992 7.44735L0.0541998 13.2903C0.0541998 13.5924 0.174169 13.882 0.387715 14.0956C0.60126 14.309 0.890891 14.429 1.19289 14.429L1.7604 14.4288C2.0759 14.4287 2.33158 14.1728 2.33158 13.8574V6.87985C2.33158 6.72825 2.27134 6.58287 2.16413 6.4757C2.0569 6.36853 1.9115 6.30835 1.75991 6.30842L1.19289 6.30866Z" fill="black"/>
</g>
<defs>
<clipPath id="clip0_195_295">
<rect width="16" height="16" fill="white"/>
</clipPath>
</defs>
</svg>
