<svg width="16" height="16" viewBox="0 0 16 16" fill="none" xmlns="http://www.w3.org/2000/svg">
<g clip-path="url(#clip0_195_301)">
<path fill-rule="evenodd" clip-rule="evenodd" d="M8.76743 3.1344L7.66531 4.23665C7.21903 4.68298 6.49541 4.68303 6.04906 4.23674C5.60273 3.79046 5.60269 3.06683 6.04897 2.62049L7.1511 1.51825C9.17537 -0.506023 12.4574 -0.506068 14.4817 1.5182C16.5059 3.54246 16.5059 6.82441 14.4817 8.84869L13.3795 9.95094C12.9333 10.3973 12.2097 10.3973 11.7633 9.95103C11.317 9.50473 11.317 8.78112 11.7633 8.33478L12.8654 7.23254C13.997 6.10089 13.997 4.26609 12.8654 3.13444C11.7338 2.00282 9.89907 2.0028 8.76743 3.1344ZM4.23653 6.04897C4.68286 6.49526 4.6829 7.21888 4.23662 7.66522L3.13449 8.76746C2.00285 9.89911 2.0028 11.7339 3.13444 12.8656C4.26608 13.9971 6.10079 13.9971 7.23245 12.8656L8.33456 11.7633C8.78085 11.317 9.50447 11.317 9.95081 11.7633C10.3971 12.2096 10.3972 12.9331 9.9509 13.3795L8.84878 14.4817C6.8245 16.5059 3.54247 16.5061 1.51821 14.4818C-0.506053 12.4575 -0.506068 9.17559 1.51816 7.15131L2.62027 6.04906C3.06656 5.60273 3.79018 5.60268 4.23653 6.04897ZM10.5224 7.09384C10.9687 6.64752 10.9687 5.92391 10.5224 5.47759C10.0761 5.03128 9.35248 5.03128 8.90616 5.47759L5.47759 8.90616C5.03128 9.35248 5.03128 10.0761 5.47759 10.5224C5.92391 10.9687 6.64752 10.9687 7.09384 10.5224L10.5224 7.09384Z" fill="black"/>
</g>
<defs>
<clipPath id="clip0_195_301">
<rect width="16" height="16" fill="white"/>
</clipPath>
</defs>
</svg>
