<svg width="16" height="16" viewBox="0 0 16 16" fill="none" xmlns="http://www.w3.org/2000/svg">
<g clip-path="url(#clip0_195_292)">
<path fill-rule="evenodd" clip-rule="evenodd" d="M15.1428 2.85714C15.1428 4.4351 13.8636 5.71429 12.2856 5.71429C10.7077 5.71429 9.4285 4.4351 9.4285 2.85714C9.4285 1.27919 10.7077 0 12.2856 0C13.8636 0 15.1428 1.27919 15.1428 2.85714ZM8.52668 0.796939C8.03688 0.648715 7.52378 0.571429 7.00271 0.571429C5.60714 0.571429 4.26872 1.12582 3.28191 2.11264C2.29508 3.09945 1.7407 4.43787 1.7407 5.83344V9.68771C1.7407 9.89847 1.65697 10.1006 1.50794 10.2496C1.3589 10.3987 1.15678 10.4824 0.94601 10.4824C0.472623 10.4824 0.0888672 10.8661 0.0888672 11.3395C0.0888672 11.8129 0.472623 12.1967 0.94601 12.1967H13.0594C13.5328 12.1967 13.9165 11.8129 13.9165 11.3395C13.9165 10.8661 13.5328 10.4824 13.0594 10.4824C12.8486 10.4824 12.6466 10.3987 12.4975 10.2496C12.3485 10.1006 12.2647 9.89847 12.2647 9.68771V7.14281C9.90742 7.13154 7.99993 5.2171 7.99993 2.85714C7.99993 2.11041 8.19091 1.40829 8.52668 0.796939ZM5.00272 14.5714C5.00272 14.0981 5.38648 13.7143 5.85986 13.7143H8.14558C8.61897 13.7143 9.00272 14.0981 9.00272 14.5714C9.00272 15.0448 8.61897 15.4286 8.14558 15.4286H5.85986C5.38648 15.4286 5.00272 15.0448 5.00272 14.5714Z" fill="black"/>
<circle cx="12.2854" cy="2.85714" r="2.85714" fill="#F7AA77"/>
</g>
<defs>
<clipPath id="clip0_195_292">
<rect width="16" height="16" fill="white"/>
</clipPath>
</defs>
</svg>
