<svg width="16" height="16" viewBox="0 0 16 16" fill="none" xmlns="http://www.w3.org/2000/svg">
<g clip-path="url(#clip0_195_303)">
<path fill-rule="evenodd" clip-rule="evenodd" d="M10.7233 1.71429C10.5476 1.71429 10.3736 1.74909 10.2113 1.81669C10.049 1.88429 9.90178 1.98334 9.778 2.10814L9.77647 2.10967L2.84059 9.06743C2.48959 9.42484 2.2929 9.90577 2.2929 10.4068C2.2929 10.9086 2.49022 11.3903 2.84227 11.7478L4.79049 13.7289C4.96334 13.905 5.17017 14.0455 5.3977 14.141C5.62525 14.2366 5.86953 14.2857 6.1163 14.2857C6.36306 14.2857 6.60735 14.2366 6.83488 14.141C7.06242 14.0455 7.26863 13.9056 7.44147 13.7295L7.44459 13.7263L13.9557 7.16046C14.2891 6.82432 14.8318 6.82206 15.168 7.15538C15.5041 7.48872 15.5064 8.03143 15.173 8.36755L8.66498 14.9303C8.66443 14.9309 8.66389 14.9314 8.66334 14.9319C8.33125 15.2698 7.93522 15.5384 7.49833 15.7217C7.06072 15.9054 6.59089 16 6.1163 16C5.6417 16 5.17186 15.9054 4.73425 15.7217C4.2967 15.5381 3.90013 15.269 3.56773 14.9304C3.56769 14.9304 3.56777 14.9304 3.56773 14.9304L1.6207 12.9505C0.952904 12.2722 0.578613 11.3586 0.578613 10.4068C0.578613 9.45494 0.952904 8.54128 1.6207 7.86302L1.62442 7.85922L8.56086 0.900934C8.56115 0.900633 8.56145 0.900334 8.56175 0.900033C8.84471 0.614982 9.18126 0.388707 9.55202 0.234241C9.92318 0.0796112 10.3213 0 10.7233 0C11.1254 0 11.5235 0.079611 11.8947 0.234241C12.2652 0.388631 12.6017 0.614755 12.8845 0.899605C12.885 0.900048 12.8854 0.90049 12.8859 0.900934L13.6579 1.67293C13.6582 1.67337 13.6587 1.67381 13.6592 1.67425C13.9441 1.95712 14.1701 2.29351 14.3245 2.66409C14.4792 3.03525 14.5588 3.43335 14.5588 3.83542C14.5588 4.2375 14.4792 4.6356 14.3245 5.00675C14.1702 5.3771 13.9443 5.7133 13.6597 5.99606C13.659 5.99669 13.6585 5.9973 13.6579 5.99792L7.51278 12.1649C7.51246 12.1651 7.51215 12.1655 7.51184 12.1658C7.33062 12.3482 7.11512 12.4931 6.87773 12.592C6.63992 12.6911 6.38486 12.7421 6.12723 12.7421C5.86962 12.7421 5.61456 12.6911 5.37675 12.592C5.13895 12.4929 4.92312 12.3478 4.7417 12.1649L4.73568 12.1587L4.35735 11.7696C4.17742 11.5895 4.03443 11.3759 3.9365 11.1408C3.83744 10.903 3.78642 10.648 3.78642 10.3904C3.78642 10.1327 3.83743 9.87768 3.9365 9.63987C4.03557 9.4021 4.18072 9.18629 4.3636 9.00489C4.36358 9.00492 4.36362 9.00487 4.3636 9.00489L8.48914 4.91214C8.82521 4.57874 9.36792 4.58091 9.70131 4.91698C10.0347 5.25305 10.0325 5.79576 9.69648 6.12915L5.57094 10.2219C5.54871 10.244 5.53099 10.2703 5.51895 10.2991C5.50691 10.328 5.50071 10.3591 5.50071 10.3904C5.50071 10.4217 5.50691 10.4527 5.51895 10.4816C5.53099 10.5105 5.54864 10.5367 5.57087 10.5588L5.58193 10.5697L5.96078 10.9596C5.98241 10.9809 6.00797 10.9979 6.03602 11.0096C6.06493 11.0216 6.09593 11.0278 6.12723 11.0278C6.15855 11.0278 6.18954 11.0216 6.21845 11.0096C6.24735 10.9975 6.27358 10.9799 6.29563 10.9577L6.29703 10.9563L12.447 4.78433L12.4506 4.78078C12.5754 4.65699 12.6745 4.50973 12.7421 4.34747C12.8097 4.18522 12.8445 4.0112 12.8445 3.83542C12.8445 3.65965 12.8097 3.48561 12.7421 3.32336C12.6745 3.16111 12.5754 3.01385 12.4506 2.89007L12.4482 2.88759L11.6712 2.11063L11.6688 2.10814C11.545 1.98334 11.3977 1.88429 11.2354 1.81669C11.0732 1.74909 10.8991 1.71429 10.7233 1.71429Z" fill="black"/>
</g>
<defs>
<clipPath id="clip0_195_303">
<rect width="16" height="16" fill="white"/>
</clipPath>
</defs>
</svg>
