<svg width="16" height="16" viewBox="0 0 16 16" fill="none" xmlns="http://www.w3.org/2000/svg">
<g clip-path="url(#clip0_195_304)">
<path d="M12.2457 -0.000976562C12.0174 -0.000976562 11.7913 0.0446497 11.5808 0.133223C11.3716 0.221246 11.182 0.34992 11.023 0.511769L1.60837 9.8807C1.53847 9.95025 1.48776 10.0367 1.46118 10.1317L0.021177 15.2745C-0.0344859 15.4733 0.0214047 15.6867 0.167381 15.8327C0.313358 15.9787 0.52672 16.0345 0.725517 15.9789L5.86838 14.5389C5.96333 14.5123 6.04978 14.4615 6.11934 14.3917L15.4881 4.97717L15.4897 4.97563C15.6496 4.81657 15.7766 4.62752 15.8633 4.41929C15.9504 4.2104 15.9952 3.98633 15.9952 3.76003C15.9952 3.53372 15.9504 3.30965 15.8633 3.10075C15.7766 2.89252 15.6496 2.70345 15.4897 2.54441L15.4881 2.54288L13.4696 0.512964C13.3104 0.350552 13.1203 0.221462 12.9106 0.133223C12.7001 0.0446497 12.4741 -0.000976562 12.2457 -0.000976562Z" fill="black"/>
</g>
<defs>
<clipPath id="clip0_195_304">
<rect width="16" height="16" fill="white"/>
</clipPath>
</defs>
</svg>
