<svg width="16" height="16" viewBox="0 0 16 16" fill="none" xmlns="http://www.w3.org/2000/svg">
<g clip-path="url(#clip0_292_692)">
<path fill-rule="evenodd" clip-rule="evenodd" d="M9.20194 0.983608C9.20194 0.51022 8.81818 0.126465 8.3448 0.126465C7.2567 0.126465 6.17926 0.34078 5.17399 0.757177C4.16872 1.17357 3.25532 1.78389 2.48591 2.55329C1.71652 3.32269 1.10619 4.23611 0.689795 5.24137C0.273398 6.24664 0.059082 7.32408 0.059082 8.41217C0.059082 8.88557 0.442838 9.26932 0.916225 9.26932C1.38961 9.26932 1.77337 8.88557 1.77337 8.41217C1.77337 7.5492 1.94334 6.69469 2.27359 5.8974C2.60383 5.10012 3.08788 4.37569 3.69809 3.76548C4.30831 3.15526 5.03273 2.67121 5.83002 2.34097C6.6273 2.01072 7.48182 1.84075 8.3448 1.84075C8.81818 1.84075 9.20194 1.457 9.20194 0.983608ZM7.97464 15.3826C7.38218 15.7641 6.67701 15.9313 5.97633 15.8564C5.27567 15.7816 4.62173 15.4692 4.12321 14.9712L3.68893 14.5369C3.49631 14.3422 3.38826 14.0793 3.38826 13.8055C3.38826 13.5315 3.49631 13.2688 3.68893 13.074L5.5175 11.2569C5.71026 11.065 5.9712 10.9572 6.24321 10.9572C6.51524 10.9572 6.77617 11.065 6.96893 11.2569C7.16364 11.4495 7.42647 11.5576 7.70036 11.5576C7.97425 11.5576 8.23709 11.4495 8.43178 11.2569L11.3461 8.3426C11.5387 8.14789 11.6467 7.88505 11.6467 7.61117C11.6467 7.33728 11.5387 7.07445 11.3461 6.87974C11.1542 6.68697 11.0464 6.42604 11.0464 6.15403C11.0464 5.88201 11.1542 5.62108 11.3461 5.42831L13.106 3.59974C13.3008 3.40711 13.5636 3.29908 13.8375 3.29908C14.1114 3.29908 14.3743 3.40711 14.5689 3.59974L15.0032 4.03403C15.5102 4.5255 15.8332 5.17597 15.9185 5.87688C16.0038 6.5778 15.8462 7.28677 15.4718 7.88545C13.479 10.8441 10.9332 13.3898 7.97464 15.3826ZM8.70361 3.43216C9.177 3.43216 9.56076 3.81592 9.56076 4.28931C9.56076 4.76269 9.177 5.14645 8.70361 5.14645C7.71853 5.14645 6.77378 5.53777 6.07721 6.23433C5.38065 6.93091 4.98933 7.87565 4.98933 8.86073C4.98933 9.33412 4.60557 9.71788 4.13218 9.71788C3.6588 9.71788 3.27504 9.33412 3.27504 8.86073C3.27504 7.42099 3.84697 6.04021 4.86503 5.02215C5.88309 4.00409 7.26386 3.43216 8.70361 3.43216Z" fill="black"/>
</g>
<defs>
<clipPath id="clip0_292_692">
<rect width="16" height="16" fill="white"/>
</clipPath>
</defs>
</svg>
