<svg width="16" height="16" viewBox="0 0 16 16" fill="none" xmlns="http://www.w3.org/2000/svg">
<g clip-path="url(#clip0_195_299)">
<path fill-rule="evenodd" clip-rule="evenodd" d="M6.35071 0.787693L5.82148 2.15385L3.99994 3.18769L2.54763 2.96615C2.30581 2.93333 2.05968 2.97314 1.84053 3.08053C1.62139 3.18791 1.4391 3.35801 1.31686 3.56923L0.824555 4.43077C0.698403 4.64535 0.64028 4.89314 0.657859 5.14144C0.675437 5.38974 0.767891 5.62687 0.923016 5.82154L1.8461 6.96615V9.03385L0.947631 10.1785C0.792505 10.3731 0.700053 10.6103 0.682475 10.8586C0.664895 11.1069 0.723018 11.3547 0.849169 11.5693L1.34148 12.4307C1.46372 12.6419 1.646 12.8121 1.86515 12.9194C2.08429 13.0269 2.33042 13.0666 2.57224 13.0338L4.02455 12.8123L5.82148 13.8462L6.35071 15.2123C6.43996 15.4437 6.59699 15.6426 6.80123 15.7831C7.00547 15.9237 7.2474 15.9993 7.49532 16H8.52917C8.7771 15.9993 9.01902 15.9237 9.22326 15.7831C9.4275 15.6426 9.58453 15.4437 9.67379 15.2123L10.203 13.8462L11.9999 12.8123L13.4523 13.0338C13.6941 13.0666 13.9402 13.0269 14.1594 12.9194C14.3785 12.8121 14.5607 12.6419 14.683 12.4307L15.1754 11.5693C15.3014 11.3547 15.3596 11.1069 15.342 10.8586C15.3244 10.6103 15.2319 10.3731 15.0769 10.1785L14.1538 9.03385V6.96615L15.0523 5.82154C15.2074 5.62687 15.2998 5.38974 15.3174 5.14144C15.335 4.89314 15.2769 4.64535 15.1507 4.43077L14.6583 3.56923C14.5362 3.35801 14.3539 3.18791 14.1347 3.08053C13.9156 2.97314 13.6694 2.93333 13.4276 2.96615L11.9754 3.18769L10.1784 2.15385L9.64917 0.787693C9.55991 0.556386 9.40288 0.357429 9.19864 0.216877C8.9944 0.0763248 8.75248 0.000732377 8.50455 0H7.49532C7.2474 0.000732377 7.00547 0.0763248 6.80123 0.216877C6.59699 0.357429 6.43996 0.556386 6.35071 0.787693ZM7.99995 10.5714C9.42011 10.5714 10.5714 9.42016 10.5714 8C10.5714 6.57984 9.42011 5.42857 7.99995 5.42857C6.57979 5.42857 5.42852 6.57984 5.42852 8C5.42852 9.42016 6.57979 10.5714 7.99995 10.5714Z" fill="black"/>
</g>
<defs>
<clipPath id="clip0_195_299">
<rect width="16" height="16" fill="white"/>
</clipPath>
</defs>
</svg>
