<svg width="16" height="16" viewBox="0 0 16 16" fill="none" xmlns="http://www.w3.org/2000/svg">
<path fill-rule="evenodd" clip-rule="evenodd" d="M1.14307 1.71429C1.14307 0.767512 1.91058 0 2.85735 0H13.1431C14.0898 0 14.8574 0.767512 14.8574 1.71429V3.4308H1.14307V1.71429ZM1.14307 4.85937V7.85714H8.00021H14.8574V4.85937H1.14307ZM7.28592 9.28572H1.14307V14.2857C1.14307 15.2325 1.91058 16 2.85735 16H7.28592V9.28572ZM8.7145 16V9.28572H14.8574V14.2857C14.8574 15.2325 14.0898 16 13.1431 16H8.7145ZM10.8574 11.2928C11.2519 11.2928 11.5716 11.6126 11.5716 12.0071V13.1499C11.5716 13.5445 11.2519 13.8642 10.8574 13.8642C10.4629 13.8642 10.1431 13.5445 10.1431 13.1499V12.0071C10.1431 11.6126 10.4629 11.2928 10.8574 11.2928ZM5.85739 12.0071C5.85739 11.6126 5.53759 11.2928 5.1431 11.2928C4.74861 11.2928 4.42882 11.6126 4.42882 12.0071V13.1499C4.42882 13.5445 4.74861 13.8642 5.1431 13.8642C5.53759 13.8642 5.85739 13.5445 5.85739 13.1499V12.0071Z" fill="black"/>
</svg>
