<svg width="16" height="16" viewBox="0 0 16 16" fill="none" xmlns="http://www.w3.org/2000/svg">
<g clip-path="url(#clip0_167_782)">
<path fill-rule="evenodd" clip-rule="evenodd" d="M11.711 4.06355H13.1429C13.9006 4.06355 14.6273 4.36456 15.1632 4.90038C15.699 5.4362 16 6.16293 16 6.92069V11.4921C16 11.8077 15.7441 12.0635 15.4286 12.0635H13.7786C13.7568 13.1871 12.8391 14.0912 11.7104 14.0912C10.5816 14.0912 9.66393 13.1871 9.64208 12.0635H5.71389C5.69204 13.1871 4.77441 14.0912 3.64561 14.0912C2.51682 14.0912 1.5992 13.1871 1.57735 12.0635H0.571429C0.255838 12.0635 0 11.8077 0 11.4921V3.49212C0 3.03745 0.180613 2.60142 0.502104 2.27993C0.823594 1.95844 1.25962 1.77783 1.71429 1.77783H8.57143C9.02608 1.77783 9.46213 1.95844 9.78361 2.27993C10.0798 2.57608 10.2564 2.96942 10.2824 3.38497V7.7079C10.2824 8.10238 10.6022 8.42219 10.9967 8.42219C11.3911 8.42219 11.711 8.10238 11.711 7.7079V4.06355Z" fill="black"/>
</g>
<defs>
<clipPath id="clip0_167_782">
<rect width="16" height="16" fill="white"/>
</clipPath>
</defs>
</svg>
