<svg width="16" height="16" viewBox="0 0 16 16" fill="none" xmlns="http://www.w3.org/2000/svg">
<g clip-path="url(#clip0_262_3694)">
<path fill-rule="evenodd" clip-rule="evenodd" d="M0.857143 1.71429H2.45311L2.88523 3.36048C2.88864 3.37346 2.89233 3.3863 2.89629 3.39898L4.00359 8.9355C4.00635 8.96529 4.01072 8.99525 4.01672 9.02525L4.49672 11.4252L4.49738 11.4286C4.56326 11.7512 4.73858 12.0413 4.9937 12.2495C5.24878 12.4577 5.56794 12.5714 5.89721 12.5714H12.8573C13.3306 12.5714 13.7144 12.1877 13.7144 11.7143C13.7144 11.2409 13.3306 10.8571 12.8573 10.8571H6.13133L5.84561 9.42857H13.8303L13.8422 9.42873C13.8824 9.42945 13.997 9.43146 14.1021 9.41429C14.485 9.35172 14.8129 9.09133 14.9656 8.74221C15.0279 8.59985 15.0585 8.42034 15.0686 8.36172L15.0715 8.34463L15.9761 3.9319L15.9786 3.92002C16.0087 3.7556 16.0022 3.58656 15.9599 3.42486C15.8294 2.92651 15.3736 2.57333 14.8585 2.57143H14.8563H4.45047L4.06801 1.11444C3.99785 0.803176 3.82541 0.524041 3.57779 0.321913C3.32272 0.11369 3.00355 -2.68343e-05 2.67429 4.74977e-09H0.857143C0.383755 4.74977e-09 0 0.383755 0 0.857143C0 1.33053 0.383755 1.71429 0.857143 1.71429ZM13.2907 14.629C13.2907 13.904 12.703 13.3162 11.9781 13.3162C11.253 13.3162 10.6653 13.904 10.6653 14.629C10.6653 15.3541 11.253 15.9417 11.9781 15.9417C12.703 15.9417 13.2907 15.3541 13.2907 14.629ZM6.26369 13.3162C6.98869 13.3162 7.57641 13.904 7.57641 14.629C7.57641 15.3539 6.98869 15.9417 6.26369 15.9417C5.53869 15.9417 4.95096 15.3539 4.95096 14.629C4.95096 13.904 5.53869 13.3162 6.26369 13.3162Z" fill="black"/>
</g>
<defs>
<clipPath id="clip0_262_3694">
<rect width="16" height="16" fill="white"/>
</clipPath>
</defs>
</svg>
