<svg width="16" height="16" viewBox="0 0 16 16" fill="none" xmlns="http://www.w3.org/2000/svg">
<g clip-path="url(#clip0_292_689)">
<path fill-rule="evenodd" clip-rule="evenodd" d="M2.28568 0C2.06382 0 1.862 0.128427 1.76805 0.329415L0.0537805 3.99614C0.0108582 4.08794 -0.00618971 4.18783 0.00198384 4.28571H0V5.36618C0 5.96454 0.258743 6.53838 0.719309 6.96147C1.17987 7.38457 1.80454 7.62226 2.45587 7.62226H2.79969C3.45103 7.62226 4.07569 7.38457 4.53625 6.96147C4.72325 6.7897 4.87696 6.59309 4.9936 6.38006C5.13834 6.186 5.37358 6.18734 5.50941 6.36506C5.62701 6.58385 5.78353 6.78568 5.97489 6.96147C6.43546 7.38457 7.06011 7.62226 7.71145 7.62226H8.32543C8.97677 7.62226 9.60142 7.38457 10.062 6.96147C10.2409 6.79711 10.3894 6.60999 10.504 6.40752C10.6539 6.17427 10.9164 6.1792 11.0525 6.39686C11.168 6.60342 11.3185 6.79423 11.5006 6.96147C11.9611 7.38457 12.5858 7.62226 13.2371 7.62226H13.5441C14.1954 7.62226 14.8201 7.38457 15.2807 6.96147C15.7413 6.53838 16 5.96454 16 5.36618V4.28571H15.9978C16.0059 4.18783 15.9889 4.08794 15.9459 3.99614L14.2318 0.329415C14.1377 0.128427 13.936 0 13.7141 0H2.28568ZM1.14286 14.8571V8.83261C2.50077 9.28135 4.11985 9.08143 5.23255 8.22054C6.71493 9.36745 9.28771 9.36746 10.7701 8.22055C11.8875 9.0851 13.5039 9.28139 14.8571 8.82203V14.8571C14.8571 15.1602 14.7367 15.451 14.5224 15.6653C14.3081 15.8797 14.0174 16 13.7143 16H12.2794V11.6688C12.2794 11.6023 12.2506 11.5385 12.1993 11.4914C12.148 11.4445 12.0785 11.418 12.0059 11.418H9.72881C9.65629 11.418 9.58673 11.4445 9.53545 11.4914C9.48417 11.5385 9.45536 11.6023 9.45536 11.6688V16H2.28571C1.98261 16 1.69192 15.8797 1.47759 15.6653C1.26327 15.451 1.14286 15.1602 1.14286 14.8571ZM2.85934 12.2982V10.8572C2.85934 10.5416 3.11518 10.2857 3.43077 10.2857H6.87535C7.19094 10.2857 7.44678 10.5416 7.44678 10.8572V12.2982C7.44678 12.6137 7.19094 12.8696 6.87535 12.8696H3.43077C3.11518 12.8696 2.85934 12.6137 2.85934 12.2982Z" fill="black"/>
</g>
<defs>
<clipPath id="clip0_292_689">
<rect width="16" height="16" fill="white"/>
</clipPath>
</defs>
</svg>
